<?xml version="1.0" encoding="UTF-8" standalone="no"?>
<!DOCTYPE svg PUBLIC "-//W3C//DTD SVG 1.1//EN" "http://www.w3.org/Graphics/SVG/1.1/DTD/svg11.dtd">
<svg width="100%" height="100%" viewBox="0 0 256 128" version="1.1" xmlns="http://www.w3.org/2000/svg" xmlns:xlink="http://www.w3.org/1999/xlink" xml:space="preserve" xmlns:serif="http://www.serif.com/" style="fill-rule:evenodd;clip-rule:evenodd;stroke-linejoin:round;stroke-miterlimit:2;">
    <g transform="matrix(1,0,0,1,-64,0)">
        <g transform="matrix(1,0,0,1,64,0)">
            <rect x="0" y="0" width="128" height="128" style="fill:rgb(0,164,255);"/>
        </g>
        <g transform="matrix(1,0,0,1,62.2917,-1.49952)">
            <circle cx="14.365" cy="14.827" r="8.02" style="fill:rgb(0,164,255);"/>
        </g>
        <g transform="matrix(1,0,0,1,163.358,99.1231)">
            <circle cx="14.365" cy="14.827" r="8.02" style="fill:rgb(0,164,255);"/>
        </g>
    </g>
    <g transform="matrix(1,0,0,1,64,0)">
        <g transform="matrix(1,0,0,1,64,0)">
            <rect x="0" y="0" width="128" height="128" style="fill:rgb(0,255,9);"/>
        </g>
        <g transform="matrix(1,0,0,1,62.2917,-1.49952)">
            <circle cx="14.365" cy="14.827" r="8.02" style="fill:rgb(0,255,9);"/>
        </g>
        <g transform="matrix(1,0,0,1,163.358,99.1231)">
            <circle cx="14.365" cy="14.827" r="8.02" style="fill:rgb(0,255,9);"/>
        </g>
    </g>
</svg>
